<svg xmlns="http://www.w3.org/2000/svg" viewBox="0 0 1200 300" width="1200" height="300" role="img" aria-label="Supervision ledger — 6 bits emitted">

  
  <defs>
    <pattern id="dots-led-light" width="20" height="20" patternUnits="userSpaceOnUse">
      <circle cx="1" cy="1" r="1" fill="#cfd2d8"/>
    </pattern>
    
  <marker id="ar-led-light" viewBox="0 0 10 10" refX="8" refY="5" markerWidth="5" markerHeight="5" orient="auto-start-reverse">
    <path d="M0 0 L10 5 L0 10 z" fill="#3b82f6"/>
  </marker>
  </defs>
  <rect x="0" y="0" width="1200" height="300" fill="#ecedf0"/>
  <rect x="0" y="0" width="1200" height="300" fill="url(#dots-led-light)"/>
  <g>
    <rect x="24" y="24" width="1152" height="252" fill="rgba(255,255,255,0.85)" stroke="#dedede" stroke-width="2" rx="18"/>
    
  <circle cx="48" cy="62" r="4" fill="#22c55e">
    <animate attributeName="opacity" values="1;.35;1" dur="2.4s" begin="0s" repeatCount="indefinite"/>
  </circle>
    <text x="62" y="67" font-family="'SF Mono', 'JetBrains Mono', Menlo, Monaco, 'Courier New', monospace" font-size="12" fill="#6e6e6e">supervision.ledger</text>
    <text x="1152" y="67" font-family="'SF Mono', 'JetBrains Mono', Menlo, Monaco, 'Courier New', monospace" font-size="11" fill="#6e6e6e" text-anchor="end">this week</text>
    <line x1="24" y1="88" x2="1176" y2="88" stroke="#dedede"/>

    <text x="48" y="136" font-family="Inter, system-ui, -apple-system, BlinkMacSystemFont, 'Segoe UI', Roboto, Helvetica, Arial, sans-serif" font-size="26" fill="#1a1a1a" font-weight="600" letter-spacing="-.015em">The agents proposed. The operator selected.</text>

    <rect x="48" y="176" width="14" height="14" fill="#2b6cf6" stroke="#2b6cf6" rx="3" opacity="1"/><rect x="70" y="176" width="14" height="14" fill="#2b6cf6" stroke="#2b6cf6" rx="3" opacity="1"/><rect x="92" y="176" width="14" height="14" fill="#2b6cf6" stroke="#2b6cf6" rx="3" opacity="1"/><rect x="114" y="176" width="14" height="14" fill="#2b6cf6" stroke="#2b6cf6" rx="3" opacity="1"/><rect x="136" y="176" width="14" height="14" fill="#2b6cf6" stroke="#2b6cf6" rx="3" opacity="1"/><rect x="158" y="176" width="14" height="14" fill="#2b6cf6" stroke="#2b6cf6" rx="3" opacity="1"/><rect x="180" y="176" width="14" height="14" fill="none" stroke="#dedede" rx="3" opacity="0.6"/><rect x="202" y="176" width="14" height="14" fill="none" stroke="#dedede" rx="3" opacity="0.6"/><rect x="224" y="176" width="14" height="14" fill="none" stroke="#dedede" rx="3" opacity="0.6"/><rect x="246" y="176" width="14" height="14" fill="none" stroke="#dedede" rx="3" opacity="0.6"/><rect x="268" y="176" width="14" height="14" fill="none" stroke="#dedede" rx="3" opacity="0.6"/><rect x="290" y="176" width="14" height="14" fill="none" stroke="#dedede" rx="3" opacity="0.6"/><rect x="312" y="176" width="14" height="14" fill="none" stroke="#dedede" rx="3" opacity="0.6"/><rect x="334" y="176" width="14" height="14" fill="none" stroke="#dedede" rx="3" opacity="0.6"/><rect x="356" y="176" width="14" height="14" fill="none" stroke="#dedede" rx="3" opacity="0.6"/><rect x="378" y="176" width="14" height="14" fill="none" stroke="#dedede" rx="3" opacity="0.6"/><rect x="400" y="176" width="14" height="14" fill="none" stroke="#dedede" rx="3" opacity="0.6"/><rect x="422" y="176" width="14" height="14" fill="none" stroke="#dedede" rx="3" opacity="0.6"/><rect x="444" y="176" width="14" height="14" fill="none" stroke="#dedede" rx="3" opacity="0.6"/><rect x="466" y="176" width="14" height="14" fill="none" stroke="#dedede" rx="3" opacity="0.6"/><rect x="488" y="176" width="14" height="14" fill="none" stroke="#dedede" rx="3" opacity="0.6"/><rect x="510" y="176" width="14" height="14" fill="none" stroke="#dedede" rx="3" opacity="0.6"/><rect x="532" y="176" width="14" height="14" fill="none" stroke="#dedede" rx="3" opacity="0.6"/><rect x="554" y="176" width="14" height="14" fill="none" stroke="#dedede" rx="3" opacity="0.6"/>
    <text x="590" y="188" font-family="Inter, system-ui, -apple-system, BlinkMacSystemFont, 'Segoe UI', Roboto, Helvetica, Arial, sans-serif" font-size="15" fill="#2b6cf6" font-weight="600">6 bits</text>

    <text x="48" y="228" font-family="'SF Mono', 'JetBrains Mono', Menlo, Monaco, 'Courier New', monospace" font-size="11" fill="#6e6e6e">3 adjudications · one selection among {approve, edit, reject, defer} · log₂(4) = 2 bits each</text>
    <text x="48" y="250" font-family="'SF Mono', 'JetBrains Mono', Menlo, Monaco, 'Courier New', monospace" font-size="11" fill="#6e6e6e" opacity="0.75">4^3 = 64 reachable outcomes · a sentence carries ~50 bits · wegalabs.com</text>
  </g>
</svg>