<svg xmlns="http://www.w3.org/2000/svg" viewBox="0 0 1200 604" width="1200" height="604" role="img" aria-label="operation.profile — two agents on the October Bus">

  
  <defs>
    <pattern id="dots-op-dark" width="20" height="20" patternUnits="userSpaceOnUse">
      <circle cx="1" cy="1" r="1" fill="#333333"/>
    </pattern>
    
  <marker id="ar-op-dark" viewBox="0 0 10 10" refX="8" refY="5" markerWidth="5" markerHeight="5" orient="auto-start-reverse">
    <path d="M0 0 L10 5 L0 10 z" fill="#3b82f6"/>
  </marker>
  </defs>
  <rect x="0" y="0" width="1200" height="604" fill="#0a0a0a"/>
  <rect x="0" y="0" width="1200" height="604" fill="url(#dots-op-dark)"/>

  <path d="M303 280 L303 326 Q303 338 315 338 L518 338 Q530 338 530 350 L530 396" fill="none" stroke="#3b82f6" stroke-width="3" marker-start="url(#ar-op-dark)" marker-end="url(#ar-op-dark)"/>
  <path d="M897 280 L897 326 Q897 338 885 338 L682 338 Q670 338 670 350 L670 396" fill="none" stroke="#3b82f6" stroke-width="3" marker-start="url(#ar-op-dark)" marker-end="url(#ar-op-dark)"/>
  
  <circle r="3" fill="#3b82f6" opacity="0">
    <animate attributeName="opacity" values="0;.9;.9;0" keyTimes="0;.15;.8;1"
             dur="2.6s" begin="0s" repeatCount="indefinite"/>
    <animateMotion dur="2.6s" begin="0s" repeatCount="indefinite" path="M303 280 L303 326 Q303 338 315 338 L518 338 Q530 338 530 350 L530 396"/>
  </circle>
  
  <circle r="3.5" fill="#f59e0b" opacity="0">
    <animate attributeName="opacity" values="0;.9;.9;0" keyTimes="0;.15;.8;1"
             dur="1.6s" begin="1.1s" repeatCount="indefinite"/>
    <animateMotion dur="1.6s" begin="1.1s" repeatCount="indefinite" path="M897 280 L897 326 Q897 338 885 338 L682 338 Q670 338 670 350 L670 396"/>
  </circle>

  <g>
    <rect x="60" y="78" width="486" height="202" fill="rgba(13,13,13,0.73)" stroke="#2d2d2d" stroke-width="2" rx="12"/>
    <rect x="61" y="79" width="484" height="43" fill="rgba(24,24,24,0.71)" rx="11"/>
    <rect x="61" y="100" width="484" height="22" fill="rgba(24,24,24,0.71)"/>
    <line x1="61" y1="122" x2="545" y2="122" stroke="#2d2d2d"/>

    
  <circle cx="76" cy="100" r="4" fill="#22c55e">
    <animate attributeName="opacity" values="1;.35;1" dur="2.4s" begin="0s" repeatCount="indefinite"/>
  </circle>
    <rect x="87" y="91" width="18" height="18" fill="#D97757" rx="4" opacity="0.92"/>
    <text x="96" y="104" font-family="Inter, system-ui, -apple-system, BlinkMacSystemFont, 'Segoe UI', Roboto, Helvetica, Arial, sans-serif" font-size="11" fill="#0a0a0a" font-weight="700" text-anchor="middle">C</text>
    <text x="113" y="105" font-family="Inter, system-ui, -apple-system, BlinkMacSystemFont, 'Segoe UI', Roboto, Helvetica, Arial, sans-serif" font-size="15" fill="#ececec" font-weight="600" letter-spacing="-.01em">Apollo</text>
    <text x="167.4" y="105" font-family="Inter, system-ui, -apple-system, BlinkMacSystemFont, 'Segoe UI', Roboto, Helvetica, Arial, sans-serif" font-size="10" fill="#D97757" font-weight="500">· Claude Code</text>
    <text x="530" y="105" font-family="Inter, system-ui, -apple-system, BlinkMacSystemFont, 'Segoe UI', Roboto, Helvetica, Arial, sans-serif" font-size="10" fill="#9a9a9a" font-weight="500" text-anchor="end">opus-5</text>

    <text x="76" y="150" font-family="'SF Mono', 'JetBrains Mono', Menlo, Monaco, 'Courier New', monospace" font-size="12" fill="#6b7280">$ october watch --repos</text>
    <text x="76" y="170" font-family="'SF Mono', 'JetBrains Mono', Menlo, Monaco, 'Courier New', monospace" font-size="12" fill="#4ade80">▸ release detected   filenav@1.4.0</text>
    <text x="76" y="190" font-family="'SF Mono', 'JetBrains Mono', Menlo, Monaco, 'Courier New', monospace" font-size="12" fill="#4ade80">▸ drafted entry from 4 commits</text>
    <text x="76" y="210" font-family="'SF Mono', 'JetBrains Mono', Menlo, Monaco, 'Courier New', monospace" font-size="12" fill="#60a5fa">→ delegate atlas  &quot;verify every number&quot;</text>
    <text x="76" y="230" font-family="'SF Mono', 'JetBrains Mono', Menlo, Monaco, 'Courier New', monospace" font-size="12" fill="#6b7280">  blocked on: atlas</text>
  </g>

  <g>
    <rect x="654" y="78" width="486" height="202" fill="rgba(13,13,13,0.73)" stroke="#2d2d2d" stroke-width="2" rx="12"/>
    <rect x="655" y="79" width="484" height="43" fill="rgba(24,24,24,0.71)" rx="11"/>
    <rect x="655" y="100" width="484" height="22" fill="rgba(24,24,24,0.71)"/>
    <line x1="655" y1="122" x2="1139" y2="122" stroke="#2d2d2d"/>

    
  <circle cx="670" cy="100" r="4" fill="#f59e0b">
    <animate attributeName="opacity" values="1;.35;1" dur="2.4s" begin="0s" repeatCount="indefinite"/>
  </circle>
    <rect x="681" y="91" width="18" height="18" fill="#10A37F" rx="4" opacity="0.92"/>
    <text x="690" y="104" font-family="Inter, system-ui, -apple-system, BlinkMacSystemFont, 'Segoe UI', Roboto, Helvetica, Arial, sans-serif" font-size="11" fill="#0a0a0a" font-weight="700" text-anchor="middle">C</text>
    <text x="707" y="105" font-family="Inter, system-ui, -apple-system, BlinkMacSystemFont, 'Segoe UI', Roboto, Helvetica, Arial, sans-serif" font-size="15" fill="#ececec" font-weight="600" letter-spacing="-.01em">Atlas</text>
    <text x="753" y="105" font-family="Inter, system-ui, -apple-system, BlinkMacSystemFont, 'Segoe UI', Roboto, Helvetica, Arial, sans-serif" font-size="10" fill="#10A37F" font-weight="500">· Codex</text>
    <text x="1124" y="105" font-family="Inter, system-ui, -apple-system, BlinkMacSystemFont, 'Segoe UI', Roboto, Helvetica, Arial, sans-serif" font-size="10" fill="#9a9a9a" font-weight="500" text-anchor="end">gpt-5</text>

    <text x="670" y="150" font-family="'SF Mono', 'JetBrains Mono', Menlo, Monaco, 'Courier New', monospace" font-size="12" fill="#6b7280">$ october review --task 412</text>
    <text x="670" y="170" font-family="'SF Mono', 'JetBrains Mono', Menlo, Monaco, 'Courier New', monospace" font-size="12" fill="#fca5a5">✗ reject  &quot;2.1k installs&quot; unverified</text>
    <text x="670" y="190" font-family="'SF Mono', 'JetBrains Mono', Menlo, Monaco, 'Courier New', monospace" font-size="12" fill="#6b7280">  no source in repo or API</text>
    <text x="670" y="210" font-family="'SF Mono', 'JetBrains Mono', Menlo, Monaco, 'Courier New', monospace" font-size="12" fill="#fbbf24">▲ escalate operator</text>
    <text x="670" y="230" font-family="'SF Mono', 'JetBrains Mono', Menlo, Monaco, 'Courier New', monospace" font-size="12" fill="#c084fc">  verdict: edit · 2 bits</text>
  </g>

  
  <circle cx="303" cy="280" r="9" fill="#22c55e" stroke="#15803d" stroke-width="3"/>
  
  <circle cx="897" cy="280" r="9" fill="#22c55e" stroke="#15803d" stroke-width="3"/>
  
  <circle cx="530" cy="396" r="9" fill="#22c55e" stroke="#15803d" stroke-width="3"/>
  
  <circle cx="670" cy="396" r="9" fill="#22c55e" stroke="#15803d" stroke-width="3"/>

  <g>
    <rect x="460" y="396" width="280" height="96" fill="rgba(13,13,13,0.73)" stroke="#4e8cff" stroke-width="2" rx="12"/>
    <rect x="461" y="397" width="278" height="43" fill="rgba(24,24,24,0.78)" rx="11"/>
    <rect x="461" y="418" width="278" height="22" fill="rgba(24,24,24,0.78)"/>
    <line x1="461" y1="440" x2="739" y2="440" stroke="#2d2d2d"/>
    
  <circle cx="476" cy="418" r="4" fill="#4e8cff">
    <animate attributeName="opacity" values="1;.35;1" dur="2.4s" begin="0s" repeatCount="indefinite"/>
  </circle>
    <text x="490" y="423" font-family="Inter, system-ui, -apple-system, BlinkMacSystemFont, 'Segoe UI', Roboto, Helvetica, Arial, sans-serif" font-size="15" fill="#ececec" font-weight="600" letter-spacing="-.01em">october bus</text>
    <text x="476" y="468" font-family="'SF Mono', 'JetBrains Mono', Menlo, Monaco, 'Courier New', monospace" font-size="11" fill="#9a9a9a">shared state · direct messages</text>
  </g>

  
  <rect x="0" y="0" width="1200" height="40" fill="rgba(24,24,24,0.71)"/>
  <line x1="0" y1="40" x2="1200" y2="40" stroke="#2d2d2d"/>
  <circle cx="16" cy="20" r="6" fill="#ff5f57"/>
  <circle cx="36" cy="20" r="6" fill="#febc2e"/>
  <circle cx="56" cy="20" r="6" fill="#28c840"/>
  <rect x="86" y="12" width="16" height="16" fill="#A855F7" rx="3"/>
  <text x="110" y="25" font-family="Inter, system-ui, -apple-system, BlinkMacSystemFont, 'Segoe UI', Roboto, Helvetica, Arial, sans-serif" font-size="14" fill="#ececec" font-weight="500" letter-spacing=".02em">October</text>
  <line x1="176" y1="10" x2="176" y2="30" stroke="#2d2d2d"/>
  <text x="190" y="25" font-family="Inter, system-ui, -apple-system, BlinkMacSystemFont, 'Segoe UI', Roboto, Helvetica, Arial, sans-serif" font-size="12" fill="#ececec" font-weight="500">operation.profile</text>
  <rect x="932" y="11" width="92" height="18" fill="rgba(78,140,255,0.12)" stroke="rgba(78,140,255,0.4)" rx="9"/>
  
  <circle cx="944" cy="20" r="3" fill="#4e8cff">
    <animate attributeName="opacity" values="1;.35;1" dur="2.4s" begin="0s" repeatCount="indefinite"/>
  </circle>
  <text x="954" y="24" font-family="Inter, system-ui, -apple-system, BlinkMacSystemFont, 'Segoe UI', Roboto, Helvetica, Arial, sans-serif" font-size="10" fill="#4e8cff">2 agents</text>
  <rect x="1032" y="11" width="100" height="18" fill="rgba(245,158,11,0.14)" stroke="rgba(245,158,11,0.4)" rx="9"/>
  <text x="1044" y="24" font-family="Inter, system-ui, -apple-system, BlinkMacSystemFont, 'Segoe UI', Roboto, Helvetica, Arial, sans-serif" font-size="10" fill="#f59e0b">1 needs you</text>
  
  <rect x="488" y="548" width="224" height="50" fill="rgba(24,24,24,0.71)" stroke="#2d2d2d" rx="18"/>
  <rect x="495" y="554" width="34" height="34" fill="#D97757" rx="9" opacity="0.9"/><rect x="537" y="554" width="34" height="34" fill="#10A37F" rx="9" opacity="0.9"/><rect x="579" y="554" width="34" height="34" fill="#A855F7" rx="9" opacity="0.9"/><rect x="621" y="554" width="34" height="34" fill="#3b82f6" rx="9" opacity="0.9"/><rect x="663" y="554" width="34" height="34" fill="#f59e0b" rx="9" opacity="0.9"/>
</svg>